# xmcd
#
# Track frame offsets:
#	150
#	16302
#	28035
#	42620
#	60742
#	72982
#	90300
#	110050
#	124987
#	136727
#	155952
#	173417
#	186052
#	200317
#
# Disc length: 2935
#
# Revision: 1
# Processed by: cddbd v1.5.1PL0 Copyright (c) Steve Scherf et al.
# Submitted via: VisiTrax 2.9.3.171 - For more info visit www.synapsa.com
# Normalized: r0:DSETVAR1
#
DISCID=c10b750e
DTITLE=Various Artist - Mr Music Country 12-96
DYEAR=1900
DGENRE=
TTITLE0=Gary P. Nunn - Under Your Hat
TTITLE1=Trisha Yearwood - Reindeer Boogie
TTITLE2=Randy Travis - I Wish It Would Rain
TTITLE3=Curtis Day - My Baby's Cookin'
TTITLE4=Kevin Charles - She Won't Love Me (Til I Grow Hair)
TTITLE5=Texas Tornados with Freddy Fender - The One I Love The Most
TTITLE6=Iris DeMent - The Way I Should
TTITLE7=Paul Brandt - My Heart Has a History
TTITLE8=John Michae Montgomery - Paint The Town Redneck
TTITLE9=Tine Valand with Guy Clark - Mineral Wells
TTITLE10=The Hutchens - Billy's Dream
TTITLE11=Jany Szabo - Trainwreck Of Emotion
TTITLE12=Guy Clark - Tryin' To Try
TTITLE13=David Ball - The Bottle That Pours The Wine
EXTD=
EXTT0=
EXTT1=
EXTT2=
EXTT3=
EXTT4=
EXTT5=
EXTT6=
EXTT7=
EXTT8=
EXTT9=
EXTT10=
EXTT11=
EXTT12=
EXTT13=
PLAYORDER=
